Land_normalized_precision_landing07_filtered_grf
version=1
nRows=12
nColumns=37
inDegrees=yes
endheader
time		1_ground_force_vx		1_ground_force_vy		1_ground_force_vz		1_ground_force_px		1_ground_force_py		1_ground_force_pz		1_ground_torque_x		1_ground_torque_y		1_ground_torque_z		2_ground_force_vx		2_ground_force_vy		2_ground_force_vz		2_ground_force_px		2_ground_force_py		2_ground_force_pz		2_ground_torque_x		2_ground_torque_y		2_ground_torque_z		3_ground_force_vx		3_ground_force_vy		3_ground_force_vz		3_ground_force_px		3_ground_force_py		3_ground_force_pz		3_ground_torque_x		3_ground_torque_y		3_ground_torque_z		4_ground_force_vx		4_ground_force_vy		4_ground_force_vz		4_ground_force_px		4_ground_force_py		4_ground_force_pz		4_ground_torque_x		4_ground_torque_y		4_ground_torque_z		
0.907000		3.998863		-39.120755		-23.783498		0.081066		0.000000		0.201820		0.027274		-0.266823		-0.162215		0.879350		9.420990		6.910917		-0.245223		0.000000		0.210463		0.053585		0.574086		0.421130		0.468722		-0.389948		-0.083275		0.381357		1.275866		1.884206		0.009422		0.008376		0.042479		-1.099459		0.074508		0.590603		-0.351363		1.268320		1.872074		0.007673		-0.018535		-0.011872		
0.909652		5.054439		-55.206509		-36.792861		0.072810		0.000000		0.175041		0.021466		-0.234347		-0.156118		-0.699546		-0.785586		4.788314		-0.306800		0.000000		0.392000		0.099225		-0.001262		-0.212615		0.399213		-0.367134		0.002642		0.381356		1.275866		1.884239		0.009352		0.007793		0.044679		-1.125467		0.041683		0.420325		-0.351367		1.268320		1.872102		0.007843		-0.014297		-0.012675		
0.912303		4.663294		-56.517638		-42.036418		0.064537		0.000000		0.144245		0.004185		-0.050442		-0.037267		-2.841859		-16.121034		-0.294612		-0.183968		0.000000		0.242877		-0.078135		-0.444790		-0.010459		0.313041		-0.331721		0.075658		0.381357		1.275868		1.884273		0.009597		0.007562		0.046283		-1.145101		-0.010407		0.245524		-0.351364		1.268327		1.872134		0.006977		-0.010685		-0.012468		
0.914955		2.089137		-32.017967		-32.535197		0.046443		0.000000		0.049865		-0.023280		0.358098		0.365452		-5.011079		-33.346589		-7.972282		-0.200608		0.000000		0.235518		-0.240120		-1.598011		-0.382183		0.235120		-0.285360		0.118157		0.381360		1.275870		1.884309		0.010192		0.007070		0.046788		-1.146571		-0.079347		0.103560		-0.351356		1.268338		1.872169		0.005132		-0.008163		-0.011430		
0.917606		-3.097336		28.019347		-2.189413		0.145784		0.000000		0.413351		0.020673		-0.174500		0.041672		-6.328276		-46.456865		-16.661353		-0.212442		0.000000		0.231462		-0.346009		-2.540235		-0.911184		0.188660		-0.237413		0.116201		0.381363		1.275872		1.884347		0.011091		0.005939		0.045889		-1.122076		-0.157204		0.023773		-0.351346		1.268351		1.872211		0.002729		-0.006861		-0.009931		
0.920258		-10.693772		128.166784		51.442739		0.089168		0.000000		0.240438		-0.115518		1.384278		0.555394		-5.709318		-47.305292		-23.427288		-0.227137		0.000000		0.227992		-0.332064		-2.751491		-1.362782		0.186626		-0.201976		0.065761		0.381363		1.275872		1.884387		0.012135		0.004103		0.043638		-1.071218		-0.229932		0.016957		-0.351335		1.268365		1.872257		0.000410		-0.006550		-0.008446		
0.922909		-19.753968		265.842837		125.322327		0.078823		0.000000		0.210379		-0.191167		2.572565		1.212712		-2.125424		-27.243783		-24.375695		-0.263804		0.000000		0.222024		-0.107878		-1.377673		-1.228838		0.229437		-0.191135		-0.024958		0.381359		1.275869		1.884429		0.013094		0.001741		0.040474		-1.001317		-0.280497		0.072937		-0.351332		1.268375		1.872306		-0.001225		-0.006760		-0.007440		
0.925561		-28.670734		431.147583		210.207832		0.073676		0.000000		0.196602		-0.271164		4.077798		1.988148		5.091744		20.815861		-15.369249		-0.171277		0.000000		0.202684		-0.281385		-1.129618		0.882803		0.306030		-0.209923		-0.137281		0.381348		1.275864		1.884472		0.013740		-0.000857		0.037148		-0.925280		-0.293402		0.165939		-0.351338		1.268380		1.872359		-0.001814		-0.006953		-0.007236		
0.928212		-35.544154		608.717402		291.544124		0.070156		0.000000		0.188733		-0.356715		6.109722		2.926143		15.871337		99.600269		6.702078		-0.171966		0.000000		0.219106		0.564821		3.548019		0.243620		0.395655		-0.254859		-0.247893		0.381330		1.275856		1.884518		0.013956		-0.003417		0.034522		-0.857625		-0.260206		0.264387		-0.351355		1.268381		1.872411		-0.001327		-0.006705		-0.007922		
0.930864		-38.928778		782.698760		353.434118		0.067569		0.000000		0.184406		-0.444574		8.940282		4.036718		29.162601		205.266231		42.381140		-0.185179		0.000000		0.217118		1.427419		10.048066		2.075540		0.473343		-0.316326		-0.337458		0.381305		1.275847		1.884566		0.013804		-0.005775		0.033243		-0.809199		-0.184065		0.342822		-0.351381		1.268379		1.872461		-0.000037		-0.005873		-0.009315		
0.933515		-38.539396		941.496359		383.723330		0.065908		0.000000		0.182924		-0.525868		12.847237		5.235974		43.051951		327.773689		88.833389		-0.190646		0.000000		0.213396		2.321433		17.674200		4.790126		0.517435		-0.381729		-0.396085		0.381278		1.275835		1.884613		0.013498		-0.007912		0.033534		-0.784312		-0.079304		0.388604		-0.351414		1.268374		1.872505		0.001636		-0.004648		-0.011040		
0.936167		-35.572612		1079.346707		378.428242		0.065337		0.000000		0.183879		-0.590100		17.910802		6.277990		55.094670		452.790392		139.525973		-0.192337		0.000000		0.208573		3.116208		25.610825		7.892085		0.515877		-0.436510		-0.424503		0.381249		1.275824		1.884662		0.013303		-0.009880		0.035124		-0.779804		0.032328		0.401716		-0.351452		1.268369		1.872546		0.003281		-0.003500		-0.012635		
